<svg viewBox="104 98 128 210" width="128" height="210" xmlns="http://www.w3.org/2000/svg">
  <!-- Icon-only mark (cup + clover, no wordmark): derived from serendipity-logo.svg.
       Transparent background, tightly cropped — for the navbar and small contexts. -->
  <g transform="translate(160 210)">
    <path d="M 34 18 C 66 18 66 70 34 70 L 34 66 C 56 66 56 22 34 22 Z" fill="#fae4bd" stroke="#1a1a1a" stroke-width="2.5" stroke-linejoin="round"/>
    <path d="M -36 0 L 36 0 L 34 84 Q 34 92 26 92 L -26 92 Q -34 92 -34 84 Z" fill="#fae4bd" stroke="#1a1a1a" stroke-width="2.5" stroke-linejoin="round"/>
    <ellipse cx="0" cy="0" rx="36" ry="4" fill="#fae4bd" fill-opacity="1" stroke="#1a1a1a" stroke-width="1.75" stroke-opacity="0.7"/>
  </g>
  <g transform="translate(160 146)">
    <path d="M 0 0 C -37 23.1875 37 43.0625 0 66.25" fill="none" stroke="#6f4e37" stroke-width="3.5" stroke-linecap="round"/>
  </g>
  <g transform="translate(160 146) scale(1 0.8) rotate(0)">
    <path d="M 0 0 C -2.6999999999999997 -9.36 -22.5 -14.560000000000002 -22.5 -28.6 C -22.5 -45.76 -10.125 -53.04 0 -40.56 C 10.125 -53.04 22.5 -45.76 22.5 -28.6 C 22.5 -14.560000000000002 2.6999999999999997 -9.36 0 0 Z" transform="rotate(45)" fill="#3b8e4e" stroke="#3b8e4e" stroke-width="2.5" stroke-linejoin="round"/>
    <path d="M 0 0 C -2.6999999999999997 -9.36 -22.5 -14.560000000000002 -22.5 -28.6 C -22.5 -45.76 -10.125 -53.04 0 -40.56 C 10.125 -53.04 22.5 -45.76 22.5 -28.6 C 22.5 -14.560000000000002 2.6999999999999997 -9.36 0 0 Z" transform="rotate(315)" fill="#95d26e" stroke="#3b8e4e" stroke-width="2.5" stroke-linejoin="round"/>
    <path d="M 0 0 C -2.6999999999999997 -9.36 -22.5 -14.560000000000002 -22.5 -28.6 C -22.5 -45.76 -10.125 -53.04 0 -40.56 C 10.125 -53.04 22.5 -45.76 22.5 -28.6 C 22.5 -14.560000000000002 2.6999999999999997 -9.36 0 0 Z" transform="rotate(135)" fill="#95d26e" stroke="#3b8e4e" stroke-width="2.5" stroke-linejoin="round"/>
    <path d="M 0 0 C -2.6999999999999997 -9.36 -22.5 -14.560000000000002 -22.5 -28.6 C -22.5 -45.76 -10.125 -53.04 0 -40.56 C 10.125 -53.04 22.5 -45.76 22.5 -28.6 C 22.5 -14.560000000000002 2.6999999999999997 -9.36 0 0 Z" transform="rotate(225)" fill="#3b8e4e" stroke="#3b8e4e" stroke-width="2.5" stroke-linejoin="round"/>
    <circle cx="0" cy="0" r="3" fill="#6f4e37"/>
  </g>
</svg>
